/* XPM */
static const char *minis_xpm[] = {
"64 64 705 2",
"  	c None",
". 	c #110700",
"+ 	c #170900",
"@ 	c #160800",
"# 	c #100700",
"$ 	c #171404",
"% 	c #1C1805",
"& 	c #2F2608",
"* 	c #322908",
"= 	c #312A08",
"- 	c #312908",
"; 	c #2E2708",
"> 	c #272006",
", 	c #191504",
"' 	c #0D0600",
") 	c #0B0400",
"! 	c #1F0C00",
"~ 	c #4C1E00",
"{ 	c #562200",
"] 	c #552200",
"^ 	c #542100",
"/ 	c #572300",
"( 	c #5B2500",
"_ 	c #6B2A00",
": 	c #3D1800",
"< 	c #060200",
"[ 	c #130F03",
"} 	c #161304",
"| 	c #9B811A",
"1 	c #B4961E",
"2 	c #B7981E",
"3 	c #9D831A",
"4 	c #997F19",
"5 	c #B3951D",
"6 	c #CCAA22",
"7 	c #F8CE29",
"8 	c #CFAC22",
"9 	c #4E400D",
"0 	c #0C0A02",
"a 	c #070200",
"b 	c #3A1700",
"c 	c #471C00",
"d 	c #341806",
"e 	c #070402",
"f 	c #20150D",
"g 	c #3D271A",
"h 	c #5A3D2A",
"i 	c #553A27",
"j 	c #392418",
"k 	c #1A110A",
"l 	c #0C0603",
"m 	c #3F1C05",
"n 	c #622700",
"o 	c #110600",
"p 	c #0F0600",
"q 	c #0A0902",
"r 	c #52440E",
"s 	c #5F4E12",
"t 	c #140F06",
"u 	c #191209",
"v 	c #362816",
"w 	c #513A25",
"x 	c #553D27",
"y 	c #3B2C19",
"z 	c #1F160C",
"A 	c #0D0A04",
"B 	c #554511",
"C 	c #A88C1C",
"D 	c #C5A321",
"E 	c #635211",
"F 	c #141103",
"G 	c #140900",
"H 	c #4D1F00",
"I 	c #190D05",
"J 	c #3A2619",
"K 	c #986B4C",
"L 	c #E39F72",
"M 	c #FFB380",
"N 	c #D8986C",
"O 	c #8D6246",
"P 	c #291A11",
"Q 	c #231105",
"R 	c #0D0B02",
"S 	c #55460E",
"T 	c #33290C",
"U 	c #261C10",
"V 	c #875F43",
"W 	c #D7976C",
"X 	c #E09D70",
"Y 	c #916649",
"Z 	c #342616",
"` 	c #271F0A",
" .	c #AD901C",
"..	c #090802",
"+.	c #0C0600",
"@.	c #2E1200",
"#.	c #341704",
"$.	c #26190F",
"%.	c #B47E5A",
"&.	c #FDB27F",
"*.	c #9E6F4F",
"=.	c #170E08",
"-.	c #371803",
";.	c #0A0400",
">.	c #131003",
",.	c #282307",
"'.	c #5E4E12",
").	c #151008",
"!.	c #95694A",
"~.	c #FBB07E",
"{.	c #AA7755",
"].	c #241A0F",
"^.	c #544511",
"/.	c #977E19",
"(.	c #100E03",
"_.	c #301300",
":.	c #1E0F05",
"<.	c #573C29",
"[.	c #F7AD7C",
"}.	c #EAA475",
"|.	c #3B281A",
"1.	c #281405",
"2.	c #120700",
"3.	c #665410",
"4.	c #45380E",
"5.	c #382819",
"6.	c #E7A274",
"7.	c #F4AB7A",
"8.	c #533B26",
"9.	c #31270B",
"0.	c #56480F",
"a.	c #0E0C02",
"b.	c #1D0F05",
"c.	c #7C573D",
"d.	c #FAAF7D",
"e.	c #583C2A",
"f.	c #2B1405",
"g.	c #130800",
"h.	c #6A5912",
"i.	c #493C10",
"j.	c #543D27",
"k.	c #F8AE7C",
"l.	c #FEB27F",
"m.	c #76533A",
"n.	c #2C230B",
"o.	c #625210",
"p.	c #110F03",
"q.	c #2F1504",
"r.	c #583D2A",
"s.	c #F9AF7D",
"t.	c #372518",
"u.	c #391903",
"v.	c #100600",
"w.	c #61500F",
"x.	c #766115",
"y.	c #362718",
"z.	c #583F29",
"A.	c #504111",
"B.	c #292206",
"C.	c #271910",
"D.	c #E8A374",
"E.	c #100A06",
"F.	c #481E00",
"G.	c #211A05",
"H.	c #C5A420",
"I.	c #140F07",
"J.	c #E6A173",
"K.	c #2B1F12",
"L.	c #8A7317",
"M.	c #0F0C02",
"N.	c #0E0500",
"O.	c #150B05",
"P.	c #B7805C",
"Q.	c #8E6447",
"R.	c #2C1505",
"S.	c #1B0B00",
"T.	c #0B0A02",
"U.	c #B2941D",
"V.	c #3D310D",
"W.	c #8E6546",
"X.	c #B6805B",
"Y.	c #1D1707",
"Z.	c #8D7417",
"`.	c #181304",
" +	c #2C1200",
".+	c #3E2A1B",
"++	c #FFC39B",
"@+	c #FEE5D4",
"#+	c #B6A8A0",
"$+	c #EFCAB1",
"%+	c #FFB481",
"&+	c #FFB98A",
"*+	c #FFC096",
"=+	c #FFB482",
"-+	c #1D120B",
";+	c #1E0F01",
">+	c #7D6815",
",+	c #BD9D1F",
"'+	c #1E160C",
")+	c #FFBF93",
"!+	c #FBD3B8",
"~+	c #FFD4B7",
"{+	c #FFBD90",
"]+	c #FFB787",
"^+	c #FFD6BA",
"/+	c #FBDAC3",
"(+	c #FFC9A5",
"_+	c #3F2D1C",
":+	c #9A8019",
"<+	c #272107",
"[+	c #2F1706",
"}+	c #A17151",
"|+	c #FFB684",
"1+	c #FEFBF9",
"2+	c #393939",
"3+	c #A8A8A8",
"4+	c #434343",
"5+	c #CCAE9A",
"6+	c #FFD5B9",
"7+	c #D2D1D1",
"8+	c #6F6F6F",
"9+	c #888583",
"0+	c #F6C09B",
"a+	c #78543B",
"b+	c #161005",
"c+	c #F2C928",
"d+	c #6B5814",
"e+	c #C5C3C1",
"f+	c #3C3C3C",
"g+	c #BAB6B3",
"h+	c #FFBC8F",
"i+	c #E7D8CE",
"j+	c #555555",
"k+	c #252525",
"l+	c #939393",
"m+	c #FFD9BF",
"n+	c #9F7050",
"o+	c #483A10",
"p+	c #8A7217",
"q+	c #120E03",
"r+	c #EDA677",
"s+	c #FFC8A3",
"t+	c #C0C0C0",
"u+	c #000000",
"v+	c #272727",
"w+	c #030303",
"x+	c #6D645E",
"y+	c #FFB583",
"z+	c #FCF8F6",
"A+	c #1A1A1A",
"B+	c #838383",
"C+	c #545454",
"D+	c #756F6A",
"E+	c #C98D65",
"F+	c #FFD42A",
"G+	c #1E1808",
"H+	c #C68B63",
"I+	c #FFD7BC",
"J+	c #343434",
"K+	c #6E6E6E",
"L+	c #6C6C6C",
"M+	c #292929",
"N+	c #FED1B3",
"O+	c #FFBE92",
"P+	c #7E7E7E",
"Q+	c #0F0F0F",
"R+	c #D1D1D1",
"S+	c #080808",
"T+	c #E7DAD1",
"U+	c #ECA676",
"V+	c #0A0703",
"W+	c #E0BA25",
"X+	c #1B1705",
"Y+	c #2B1B11",
"Z+	c #FFDCC4",
"`+	c #909090",
" @	c #3F3D3B",
".@	c #FFCAA6",
"+@	c #B9B9B9",
"@@	c #2C2B2A",
"#@	c #060402",
"$@	c #CDAB22",
"%@	c #0C0904",
"&@	c #F8DECB",
"*@	c #050505",
"=@	c #D3BDAF",
"-@	c #2D2D2D",
";@	c #040404",
">@	c #A7A29F",
",@	c #2E2213",
"'@	c #221C05",
")@	c #401900",
"!@	c #472F1F",
"~@	c #DADADA",
"{@	c #8C847F",
"]@	c #FFD6BB",
"^@	c #CACACA",
"/@	c #383838",
"(@	c #1B130D",
"_@	c #A2871A",
":@	c #291F10",
"<@	c #FFE6D6",
"[@	c #313131",
"}@	c #F7E2D3",
"|@	c #FFD7BD",
"1@	c #585858",
"2@	c #D5CECA",
"3@	c #4A3620",
"4@	c #A3881B",
"5@	c #725F13",
"6@	c #351500",
"7@	c #63442F",
"8@	c #FFD1B1",
"9@	c #FFFFFF",
"0@	c #8B8B8B",
"a@	c #151515",
"b@	c #5F5F5F",
"c@	c #ECCCB6",
"d@	c #FFD0B1",
"e@	c #FDFDFD",
"f@	c #1E1E1E",
"g@	c #9A908A",
"h@	c #322318",
"i@	c #7B6614",
"j@	c #45321E",
"k@	c #B0B0B0",
"l@	c #0A0A0A",
"m@	c #6D6D6D",
"n@	c #FFDEC8",
"o@	c #FFD2B4",
"p@	c #B8B8B8",
"q@	c #0D0D0D",
"r@	c #4C4C4C",
"s@	c #FFE1CE",
"t@	c #654930",
"u@	c #897217",
"v@	c #5E402C",
"w@	c #FEFEFE",
"x@	c #F0F0F0",
"y@	c #808080",
"z@	c #BBBBBB",
"A@	c #2D1F15",
"B@	c #705C12",
"C@	c #412F1C",
"D@	c #FFC59D",
"E@	c #C8C8C8",
"F@	c #FFCDAB",
"G@	c #E7E7E7",
"H@	c #C5C5C5",
"I@	c #FFCBA7",
"J@	c #62462E",
"K@	c #8C7417",
"L@	c #D7B323",
"M@	c #241E06",
"N@	c #371600",
"O@	c #422B1D",
"P@	c #FFB888",
"Q@	c #FFCEAD",
"R@	c #FFB685",
"S@	c #FFC197",
"T@	c #FFF5EF",
"U@	c #FFFCFB",
"V@	c #FFC299",
"W@	c #180F0A",
"X@	c #5A4A0F",
"Y@	c #251C0E",
"Z@	c #FFB584",
"`@	c #FFEEE3",
" #	c #FFEBDE",
".#	c #FFE7D7",
"+#	c #FFE3D1",
"@#	c #FFC298",
"##	c #FFD8BE",
"$#	c #FFE0CB",
"%#	c #FFE8D9",
"&#	c #FFEFE4",
"*#	c #47331F",
"=#	c #A68A1B",
"-#	c #3B1800",
";#	c #25170E",
">#	c #FFB786",
",#	c #040201",
"'#	c #5F4B0F",
")#	c #090603",
"!#	c #291E10",
"~#	c #C2A120",
"{#	c #987E19",
"]#	c #161303",
"^#	c #090400",
"/#	c #0A0603",
"(#	c #BC845E",
"_#	c #1D0F06",
":#	c #302306",
"<#	c #28200B",
"[#	c #0C0A04",
"}#	c #F7CD29",
"|#	c #241F06",
"1#	c #0C0500",
"2#	c #873600",
"3#	c #3A1A05",
"4#	c #94684A",
"5#	c #FCB17E",
"6#	c #6A4A33",
"7#	c #522201",
"8#	c #261503",
"9#	c #5E4E10",
"0#	c #6C4D34",
"a#	c #524211",
"b#	c #726014",
"c#	c #100D03",
"d#	c #A64200",
"e#	c #702D00",
"f#	c #2C1D12",
"g#	c #EEA777",
"h#	c #74513A",
"i#	c #C38962",
"j#	c #F1A979",
"k#	c #120B06",
"l#	c #8A3700",
"m#	c #632901",
"n#	c #5A4B0F",
"o#	c #151007",
"p#	c #F2AA79",
"q#	c #CD9067",
"r#	c #302314",
"s#	c #3A310A",
"t#	c #110E02",
"u#	c #361500",
"v#	c #AA4400",
"w#	c #A94300",
"x#	c #211005",
"y#	c #A27251",
"z#	c #34251A",
"A#	c #35251B",
"B#	c #7E583F",
"C#	c #E9A475",
"D#	c #DA996D",
"E#	c #D19369",
"F#	c #79543B",
"G#	c #A04000",
"H#	c #482503",
"I#	c #2E240A",
"J#	c #7C573E",
"K#	c #F3AB7A",
"L#	c #5B402E",
"M#	c #694A35",
"N#	c #A07050",
"O#	c #EBA576",
"P#	c #AD7957",
"Q#	c #0C0805",
"R#	c #120F02",
"S#	c #7F3300",
"T#	c #7A3100",
"U#	c #180F09",
"V#	c #E19E71",
"W#	c #070504",
"X#	c #541610",
"Y#	c #762319",
"Z#	c #593A2A",
"`#	c #5E422F",
" $	c #684934",
".$	c #6F4E38",
"+$	c #614431",
"@$	c #4E3727",
"#$	c #473224",
"$$	c #926649",
"%$	c #D5966B",
"&$	c #0C0704",
"*$	c #913A00",
"=$	c #522100",
"-$	c #080604",
";$	c #060403",
">$	c #201610",
",$	c #38271C",
"'$	c #633022",
")$	c #773224",
"!$	c #5A3D2B",
"~$	c #533A2A",
"{$	c #4F3728",
"]$	c #453023",
"^$	c #241912",
"/$	c #855D43",
"($	c #130E09",
"_$	c #A54200",
":$	c #491F03",
"<$	c #3A271A",
"[$	c #95694B",
"}$	c #251A13",
"|$	c #0D0000",
"1$	c #C50000",
"2$	c #D10000",
"3$	c #3A0000",
"4$	c #090605",
"5$	c #503828",
"6$	c #A37252",
"7$	c #1F130C",
"8$	c #622701",
"9$	c #381701",
"0$	c #1C140E",
"a$	c #EFA878",
"b$	c #33241A",
"c$	c #0A0000",
"d$	c #CB0000",
"e$	c #D50000",
"f$	c #430000",
"g$	c #2D2017",
"h$	c #F6AD7B",
"i$	c #0B0806",
"j$	c #411A00",
"k$	c #953C00",
"l$	c #A74300",
"m$	c #301605",
"n$	c #513726",
"o$	c #A47352",
"p$	c #835A40",
"q$	c #65402E",
"r$	c #76533B",
"s$	c #DF9D70",
"t$	c #342217",
"u$	c #471E03",
"v$	c #A24100",
"w$	c #522000",
"x$	c #B07C58",
"y$	c #653C2C",
"z$	c #5D2E21",
"A$	c #593E2D",
"B$	c #815B41",
"C$	c #543C2A",
"D$	c #0D0906",
"E$	c #120800",
"F$	c #130700",
"G$	c #A14100",
"H$	c #2C1404",
"I$	c #2C1F16",
"J$	c #D4956A",
"K$	c #1D120C",
"L$	c #481E03",
"M$	c #793000",
"N$	c #150800",
"O$	c #0A0704",
"P$	c #312218",
"Q$	c #0D0907",
"R$	c #421A00",
"S$	c #A84300",
"T$	c #562403",
"U$	c #0E0B09",
"V$	c #474644",
"W$	c #13100E",
"X$	c #896146",
"Y$	c #72513B",
"Z$	c #0A0806",
"`$	c #130B07",
" %	c #853500",
".%	c #A34100",
"+%	c #050200",
"@%	c #434242",
"#%	c #0D0B0A",
"$%	c #75533D",
"%%	c #8A6146",
"&%	c #090807",
"*%	c #0E0600",
"=%	c #481D00",
"-%	c #472006",
";%	c #312D2A",
">%	c #DDDDDD",
",%	c #D2D2D2",
"'%	c #484543",
")%	c #181411",
"!%	c #6A4C38",
"~%	c #B9825D",
"{%	c #5E4433",
"]%	c #100D0C",
"^%	c #5E5C5A",
"/%	c #E2E2E2",
"(%	c #969595",
"_%	c #0C0A08",
":%	c #5D2500",
"<%	c #6E2C00",
"[%	c #2E1300",
"}%	c #0C0400",
"|%	c #C1C1C1",
"1%	c #DCDCDC",
"2%	c #565452",
"3%	c #674A37",
"4%	c #C18761",
"5%	c #71513B",
"6%	c #1B1613",
"7%	c #43403E",
"8%	c #CCCCCC",
"9%	c #AFAFAF",
"0%	c #090604",
"a%	c #1B1B1B",
"b%	c #EDEDED",
"c%	c #CDCDCD",
"d%	c #7C7B7A",
"e%	c #2D2A27",
"f%	c #130F0D",
"g%	c #2D231D",
"h%	c #29211B",
"i%	c #0E0C0A",
"j%	c #010101",
"k%	c #3A3634",
"l%	c #8A8A8A",
"m%	c #C4C4C4",
"n%	c #0B0A0A",
"o%	c #040100",
"p%	c #090909",
"q%	c #D4D4D4",
"r%	c #80807F",
"s%	c #020202",
"t%	c #16120F",
"u%	c #31261F",
"v%	c #352922",
"w%	c #030202",
"x%	c #252220",
"y%	c #757473",
"z%	c #D5D5D5",
"A%	c #0E0E0E",
"B%	c #060606",
"C%	c #D7D7D7",
"D%	c #F4F4F4",
"E%	c #DBDBDB",
"F%	c #DFDFDF",
"G%	c #F8F8F8",
"H%	c #070707",
"I%	c #0B0B0B",
"J%	c #B1B1B1",
"K%	c #F1F1F1",
"L%	c #BDBDBD",
"M%	c #D3D3D3",
"N%	c #CFCFCF",
"O%	c #4E4E4E",
"P%	c #515151",
"Q%	c #2B2B2B",
"R%	c #787878",
"S%	c #C3C3C3",
"T%	c #A6A6A6",
"U%	c #232323",
"V%	c #626262",
"W%	c #131313",
"X%	c #FBFBFB",
"Y%	c #898989",
"Z%	c #D6D6D6",
"`%	c #575757",
" &	c #7F7F7F",
".&	c #111111",
"+&	c #7C7C7C",
"@&	c #212121",
"#&	c #7B7B7B",
"$&	c #444444",
"%&	c #1F1F1F",
"&&	c #424242",
"*&	c #1D1D1D",
"=&	c #737373",
"-&	c #404040",
";&	c #7D7D7D",
">&	c #3D3D3D",
",&	c #181818",
"'&	c #6B6B6B",
")&	c #3B3B3B",
"!&	c #171717",
"~&	c #676767",
"{&	c #363636",
"]&	c #5E5E5E",
"^&	c #7A7A7A",
"/&	c #121212",
"(&	c #595959",
"_&	c #323232",
":&	c #797979",
"<&	c #101010",
"[&	c #303030",
"}&	c #0C0C0C",
"|&	c #4D4D4D",
"1&	c #484848",
"2&	c #777777",
"3&	c #646464",
"4&	c #0A0202",
"5&	c #1F0B0B",
"6&	c #1B0909",
"7&	c #060000",
"8&	c #040101",
"9&	c #170909",
"0&	c #6D0101",
"a&	c #FF0000",
"b&	c #DF0000",
"c&	c #090000",
"d&	c #3D0303",
"e&	c #3D0202",
"f&	c #3C0202",
"g&	c #3C0101",
"h&	c #3B0101",
"i&	c #400000",
"j&	c #970000",
"k&	c #840000",
"l&	c #240000",
"m&	c #9F0000",
"n&	c #0F0303",
"o&	c #100303",
"p&	c #100404",
"q&	c #100505",
"r&	c #110505",
"s&	c #090303",
"t&	c #0C0101",
"u&	c #0F0202",
"v&	c #0A0303",
"                                . + @ #                                               $ % & * = - ; > ,                         ",
"                        ' ) ! ~ { ] ^ / ( _ : <                                   [ } | 1 2 3 4 5 6 7 8 9 0                     ",
"                    a b c d e f g h i j k l m n o p                             q r s t u v w x y z A B C D E F                 ",
"                  G H I J K L M M M M M M N O P Q H )                       R S T U V W M M M M M M X Y Z `  .1 ..              ",
"              +.@.#.$.%.M M M M M M M M M M M &.*.=.-.;.                >.,.'.).!.~.M M M M M M M M M M M {.].^./.(.            ",
"              _.:.<.[.M M M M M M M M M M M M M M }.|.1.2.            R 3.4.5.6.M M M M M M M M M M M M M M 7.8.9.0.a.          ",
"            ! b.c.M M M M M M M M M M M M M M M M M d.e.f.g.        R h.i.j.k.M M M M M M M M M M M M M M M M l.m.n.o.p.        ",
"          . q.r.M M M M M M M M M M M M M M M M M M M s.t.u.v.    (.w.x.y.[.M M M M M M M M M M M M M M M M M M M z.A.B.        ",
"          : C.[.M M M M M M M M M M M M M M M M M M M M D.E.F..   G.H.I.J.M M M M M M M M M M M M M M M M M M M M [.K.L.M.      ",
"        N.O.P.M M M M M M M M M M M M M M M M M M M M M M Q.R.S.T.U.V.W.M M M M M M M M M M M M M M M M M M M M M M X.Y.Z.`.    ",
"         +.+M M M M M ++@+#+$+%+M M M M &+*+=+M M M M M M s.-+;+>+,+'+s.M M M M )+!+~+{+M M M M ]+^+/+(+M M M M M M M _+:+<+    ",
"      v.[+}+M M M M |+1+2+3+4+5+M M M 6+7+8+9+0+M M M M M M a+b+c+d+m.M M M M *+e+2+f+g+h+M M M i+j+k+l+m+M M M M M M n+o+p+q+  ",
"      v.e r+M M M M s+t+u+v+w+x+M M y+z+A+B+C+D+M M M M M M E+t F+G+H+M M M M I+J+K+L+M+N+M M O+P+Q+R+S+T+M M M M M M U+V+W+X+  ",
"       +Y+M M M M M Z+`+u+u+u+ @M M .@+@u+u+u+@@M M M M M M l.#@$@%@l.M M M M &@*@u+u+u+=@M M 6+-@u+;@u+>@M M M M M M M ,@,+'@  ",
"      )@!@M M M M M m+~@u+u+u+{@M M ]@^@u+u+u+/@M M M M M M M (@_@:@M M M M M <@[@u+u+*@}@M M |@1@u+u+u+2@M M M M M M M 3@4@5@  ",
"      6@7@M M M M M 8@9@0@a@b@c@M M d@e@f@u+u+g@M M M M M M M h@i@j@M M M M M ^+k@l@u+m@n@M M o@p@q@u+r@s@M M M M M M M t@u@H.'@",
"      6@v@M M M M M s+9@9@w@9@s+M M .@9@x@y@z@m+M M M M M M M A@B@C@M M M M M D@9@x@E@9@~+M M F@9@G@H@9@I@M M M M M M M J@K@L@M@",
"      N@O@M M M M M P@Q@o@I+Z+R@M M S@T@U@9@9@V@M M M M M M M W@X@Y@M M M M M Z@`@ #.#+#@#M M h+##$#%#&#R@M M M M M M M *#=#L@M@",
"      -#;#M M M M M M M M M M M M M M M M >#O+M M M M M M M ~.,#'#)#~.M M M M M M M M M M M M M M M M M M M M M M M M M !#~#{#]#",
"    ^#n /#L M M M M M M M M M M M M M M M M M M M M M M M M (#_#:#<#(#M M M M M M M M M M M M M M M M M M M M M M M M L [#}#|#  ",
"    1#2#3#4#M M 5#M M M M M M M M M M M M M M M M M M M M M 6#7#8#9#0#M M M M M M M M M M M M M M M M M M M M M M M M 4#a#b#c#  ",
"    o d#e#f#l.M g#h#i#M M M M M M M M M M M M M M M M M M j#k#l#m#n#o#p#M M q#p#M M M M M M M M M M M M M M M M M M &.r#s#t#    ",
"    u#v#w#x#y#M M D.z#A#B#X.C#M M M M M M M M M D#E#M M M F#3#v#G#H#I#J#M M K#L#M#N#D.M M M M M M M M M O#P#B#6.M M N#Q#R#      ",
"  1#S#v#v#T#U#}.M M V#z#u+u+W#X#Y#Z#`# $.$+$@$#$$$l.M M %$&$*$v#v#v#=$-$D#M M d.`#u+;$>$,$'$)$!$~${$]$^$^$/$d.M M O#($          ",
"  o _$v#v#v#:$<$s.M M ~.[$}$|$1$2$3$u+u+4$5$6$s.M M M U+7$8$v#v#v#v#w#9$0$a$M M l.[$b$u+c$d$e$f$u+u+g$Y h$M M M d.,$i$          ",
") j$k$v#v#v#l$m$n$h$M M M h$o$p$q$`#r$$$s$M M M M M }.t$u$v#v#v#v#v#v$w$)#A#r+M M M l.x$.$y$z$A$B$P#5#M M M M k.C$D$            ",
"  v.E$F$l#v#v#G$H$I$J.M M M M M M M M M M M M M M J$K$L$l$v#v#v#v#M$N$)   O$(@J$M M M M M M M M M M M M M M 6.P$Q$              ",
"        R$v#S$T$U$V$W$X$h$M M M M M M M M M M r+Y$Z$`$ %v#v#v#.%=$+%      S+@%#%$%a$M M M M M M M M M M [.%%Q$&%                ",
"        *%=%-%;%>%9@,%'%)%!%~%h$M M M M j#P#{%]%^%/%(%_%:%<%[%;.}%      Q+|%9@1%2%W$3%P.k.M M M M ~.4%5%6%7%8%9%q@              ",
"          0%a%b%9@9@9@9@c%d%e%u+f%g%h%i%j%k%l%1%9@9@9@m%n%o%          p%8%9@9@9@9@q%r%;%s%t%u%v%6%w%x%y%E@9@9@9@z%A%            ",
"          B%C%9@9@9@9@9@9@9@9@D%E%|%H@F%G%9@9@9@9@9@9@9@p@H%        I%J%9@9@9@9@9@9@9@9@K%C%L%+@M%b%9@9@9@9@9@9@9@N%H%          ",
"          O%9@9@9@9@9@9@9@9@9@9@9@9@9@9@9@9@9@9@9@9@9@9@9@P%p%      Q%9@9@9@9@9@9@9@9@9@9@9@9@9@9@9@9@9@9@9@9@9@9@9@R%q@        ",
"        p%S%9@9@9@9@9@9@9@9@9@9@9@9@9@9@9@9@9@9@9@9@9@9@9@~@H%    A%T%9@9@9@9@9@9@9@9@9@9@9@9@9@9@9@9@9@9@9@9@9@9@9@x@I%        ",
"        U%9@9@9@9@9@9@9@9@9@9@9@9@9@9@9@9@9@9@9@9@9@9@9@9@9@V%l@  W%X%9@9@9@9@9@9@9@9@9@9@9@9@9@9@9@9@9@9@9@9@9@9@9@9@Y%q@      ",
"        V%9@9@9@9@9@9@9@9@9@9@9@9@9@9@9@9@9@9@9@9@9@9@9@9@9@Z%B%  `%9@9@9@9@9@9@9@9@9@9@9@9@9@9@9@9@9@9@9@9@9@9@9@9@9@D%;@      ",
"      *@ &9@9@9@9@9@9@9@9@9@9@9@9@9@9@9@9@9@9@9@9@9@9@9@9@9@9@.&w++&9@9@9@9@9@9@9@9@9@9@9@9@9@9@9@9@9@9@9@9@9@9@9@9@9@9@J+      ",
"      *@ &9@9@9@9@9@9@9@9@9@9@9@9@9@9@9@9@9@9@9@9@9@9@9@9@9@9@@&s%#&9@9@9@9@9@9@9@9@9@9@9@9@9@9@9@9@9@9@9@9@9@9@9@9@9@9@$&      ",
"      *@P+9@9@9@9@9@9@9@9@9@9@9@9@9@9@9@9@9@9@9@9@9@9@9@9@9@9@%&u+R%9@9@9@9@9@9@9@9@9@9@9@9@9@9@9@9@9@9@9@9@9@9@9@9@9@9@&&      ",
"      *@P+9@9@9@9@9@9@9@9@9@9@9@9@9@9@9@9@9@9@9@9@9@9@9@9@9@9@*&u+=&9@9@9@9@9@9@9@9@9@9@9@9@9@9@9@9@9@9@9@9@9@9@9@9@9@9@-&      ",
"      ;@;&9@9@9@9@9@9@9@9@9@9@9@9@9@9@9@9@9@9@9@9@9@9@9@9@9@9@a%u+8+9@9@9@9@9@9@9@9@9@9@9@9@9@9@9@9@9@9@9@9@9@9@9@9@9@9@>&      ",
"      ;@+&9@9@9@9@9@9@9@9@9@9@9@9@9@9@9@9@9@9@9@9@9@9@9@9@9@9@,&u+'&9@9@9@9@9@9@9@9@9@9@9@9@9@9@9@9@9@9@9@9@9@9@9@9@9@9@)&      ",
"      ;@+&9@9@9@9@9@9@9@9@9@9@9@9@9@9@9@9@9@9@9@9@9@9@9@9@9@9@!&u+~&9@9@9@9@9@9@9@9@9@9@9@9@9@9@9@9@9@9@9@9@9@9@9@9@9@9@/@      ",
"      s%#&9@9@9@9@9@9@9@9@9@9@9@9@9@9@9@9@9@9@9@9@9@9@9@9@9@9@a@u+V%9@9@9@9@9@9@9@9@9@9@9@9@9@9@9@9@9@9@9@9@9@9@9@9@9@9@{&      ",
"      s%#&9@9@9@9@9@9@9@9@9@9@9@9@9@9@9@9@9@9@9@9@9@9@9@9@9@9@W%u+]&9@9@9@9@9@9@9@9@9@9@9@9@9@9@9@9@9@9@9@9@9@9@9@9@9@9@J+      ",
"      s%^&9@9@9@9@9@9@9@9@9@9@9@9@9@9@9@9@9@9@9@9@9@9@9@9@9@9@/&u+(&9@9@9@9@9@9@9@9@9@9@9@9@9@9@9@9@9@9@9@9@9@9@9@9@9@9@_&      ",
"      s%:&9@9@9@9@9@9@9@9@9@9@9@9@9@9@9@9@9@9@9@9@9@9@9@9@9@9@<&u+j+9@9@9@9@9@9@9@9@9@9@9@9@9@9@9@9@9@9@9@9@9@9@9@9@9@9@[&      ",
"      u+:&9@9@9@9@9@9@9@9@9@9@9@9@9@9@9@9@9@9@9@9@9@9@9@9@9@9@q@  P%9@9@9@9@9@9@9@9@9@9@9@9@9@9@9@9@9@9@9@9@9@9@9@9@9@9@-@      ",
"      u+R%9@9@9@9@9@9@9@9@9@9@9@9@9@9@9@9@9@9@9@9@9@9@9@9@9@9@}&  |&9@9@9@9@9@9@9@9@9@9@9@9@9@9@9@9@9@9@9@9@9@9@9@9@9@9@Q%      ",
"      u+R%9@9@9@9@9@9@9@9@9@9@9@9@9@9@9@9@9@9@9@9@9@9@9@9@9@9@l@  1&9@9@9@9@9@9@9@9@9@9@9@9@9@9@9@9@9@9@9@9@9@9@9@9@9@9@M+      ",
"      u+2&9@9@9@9@9@9@9@9@9@9@9@9@9@9@9@9@9@9@9@9@9@9@9@9@9@9@p%  $&9@9@9@9@9@9@9@9@9@9@9@9@9@9@9@9@9@9@9@9@9@9@9@9@9@9@v+      ",
"      u+3&C%C%C%C%C%C%C%C%C%C%C%C%C%C%C%C%C%C%C%C%C%C%C%C%C%C%B%  {&C%C%C%C%C%C%C%C%C%C%C%C%C%C%C%C%C%C%C%C%C%C%C%C%C%C%%&      ",
"      u+4&5&5&5&5&5&5&5&5&5&5&5&5&5&5&5&5&5&5&5&5&5&5&5&5&5&6&7&u+8&9&9&9&9&9&9&9&9&9&9&9&9&9&9&9&9&9&9&9&9&9&9&9&9&9&9&u+      ",
"      u+0&a&a&a&a&a&a&a&a&a&a&a&a&a&a&a&a&a&a&a&a&a&a&a&a&a&b&c&u+d&a&a&a&a&a&a&a&a&a&a&a&a&a&a&a&a&a&a&a&a&a&a&a&a&a&a&u+      ",
"      u+0&a&a&a&a&a&a&a&a&a&a&a&a&a&a&a&a&a&a&a&a&a&a&a&a&a&b&c&u+d&a&a&a&a&a&a&a&a&a&a&a&a&a&a&a&a&a&a&a&a&a&a&a&a&a&a&u+      ",
"      u+0&a&a&a&a&a&a&a&a&a&a&a&a&a&a&a&a&a&a&a&a&a&a&a&a&a&b&c&u+e&a&a&a&a&a&a&a&a&a&a&a&a&a&a&a&a&a&a&a&a&a&a&a&a&a&a&u+      ",
"      u+0&a&a&a&a&a&a&a&a&a&a&a&a&a&a&a&a&a&a&a&a&a&a&a&a&a&b&c&u+f&a&a&a&a&a&a&a&a&a&a&a&a&a&a&a&a&a&a&a&a&a&a&a&a&a&a&u+      ",
"      u+0&a&a&a&a&a&a&a&a&a&a&a&a&a&a&a&a&a&a&a&a&a&a&a&a&a&b&c&u+f&a&a&a&a&a&a&a&a&a&a&a&a&a&a&a&a&a&a&a&a&a&a&a&a&a&a&u+      ",
"      u+0&a&a&a&a&a&a&a&a&a&a&a&a&a&a&a&a&a&a&a&a&a&a&a&a&a&b&c&u+f&a&a&a&a&a&a&a&a&a&a&a&a&a&a&a&a&a&a&a&a&a&a&a&a&a&a&u+      ",
"      u+0&a&a&a&a&a&a&a&a&a&a&a&a&a&a&a&a&a&a&a&a&a&a&a&a&a&b&c&u+f&a&a&a&a&a&a&a&a&a&a&a&a&a&a&a&a&a&a&a&a&a&a&a&a&a&a&u+      ",
"      u+0&a&a&a&a&a&a&a&a&a&a&a&a&a&a&a&a&a&a&a&a&a&a&a&a&a&b&c&u+f&a&a&a&a&a&a&a&a&a&a&a&a&a&a&a&a&a&a&a&a&a&a&a&a&a&a&u+      ",
"      u+0&a&a&a&a&a&a&a&a&a&a&a&a&a&a&a&a&a&a&a&a&a&a&a&a&a&b&c&u+g&a&a&a&a&a&a&a&a&a&a&a&a&a&a&a&a&a&a&a&a&a&a&a&a&a&a&u+      ",
"      u+0&a&a&a&a&a&a&a&a&a&a&a&a&a&a&a&a&a&a&a&a&a&a&a&a&a&b&c&  h&a&a&a&a&a&a&a&a&a&a&a&a&a&a&a&a&a&a&a&a&a&a&a&a&a&a&u+      ",
"      u+i&j&j&j&j&j&j&j&j&j&j&j&j&j&j&j&j&j&j&j&j&j&j&j&j&j&k&c&  l&m&m&m&m&m&m&m&m&m&m&m&m&m&m&m&m&m&m&m&m&m&m&m&m&m&m&u+      ",
"      u+n&n&o&o&o&o&o&p&p&p&p&p&p&p&p&p&p&p&p&p&p&p&q&q&q&r&r&s&  t&u&u&u&u&u&o&o&o&o&o&o&o&o&o&o&o&o&o&o&o&o&p&p&p&p&p&v&      "};
